<svg width="74" height="94" viewBox="0 0 74 94" fill="none" xmlns="http://www.w3.org/2000/svg">
<g clip-path="url(#clip0_107_31140)">
<path d="M47.421 30.3932C47.5605 30.23 47.6862 30.0555 47.7969 29.8716C48.8887 27.6811 49.9694 25.485 51.0611 23.2946C51.3913 22.6287 51.5272 22.5787 52.1959 22.8978C55.6717 24.5321 58.8825 26.679 61.7208 29.2667C65.6033 32.82 68.6721 37.1703 70.7172 42.0198C71.9113 44.8783 72.7535 47.8713 73.2254 50.9329C73.7151 53.9711 73.6929 57.0369 73.4418 60.0611C73.0645 64.5836 71.7258 68.8786 69.6962 72.9627C67.6742 77.0297 64.9041 80.6795 61.5308 83.7209C57.3843 87.4914 52.5788 90.1231 47.2031 91.7517C42.7362 93.1071 38.1679 93.4761 33.5608 93.139C29.5544 92.8421 25.7034 91.7739 22.0008 90.1675C16.3463 87.7148 11.6421 84.0344 7.80632 79.2469C5.49376 76.3614 3.75275 73.1347 2.38213 69.6984C1.15718 66.6243 0.507946 63.4183 0.0695713 60.1596C-0.0289243 59.4313 0.00297698 58.6836 0.00297698 57.94C0.00297698 41.3854 0.00297698 24.8307 0.00297698 8.27607C0.00297698 7.13296 0.0334967 7.10799 1.11279 6.65575C6.22808 4.51659 11.3425 2.37466 16.4559 0.229954C16.5835 0.177238 16.7223 0.149493 16.8471 0.0912279C17.2841 -0.118248 17.5061 -0.00865454 17.4839 0.499083C17.4755 0.683589 17.4839 0.868094 17.4839 1.05399C17.4839 18.2986 17.4839 35.5468 17.4839 52.7988C17.4839 54.2291 17.3105 55.6635 17.359 57.091C17.5227 61.9002 19.2466 66.0763 22.5307 69.6194C24.8308 72.1458 27.7717 74.0029 31.0416 74.9936C34.346 76.0174 37.8642 76.1376 41.2308 75.3419C44.5974 74.5461 47.6895 72.8633 50.1858 70.4684C52.5534 68.2386 54.3093 65.4386 55.2853 62.3362C56.6573 57.9927 56.5602 53.6839 54.9163 49.4347C53.1337 44.8207 50.0235 41.3886 45.6217 39.119C44.3731 38.4781 44.3731 38.4851 43.9042 39.7988C43.5741 40.7102 43.23 41.6175 42.8971 42.5275C42.6945 43.0824 42.6335 43.0977 42.2576 42.6399C41.0294 41.1398 39.8007 39.636 38.5716 38.1285C36.0468 35.0303 33.5224 31.9321 30.9985 28.8339C29.3505 26.8099 27.7066 24.7817 26.046 22.7688C25.7436 22.4012 25.8518 22.2555 26.2527 22.1723L29.3768 21.5258C32.2457 20.932 35.1104 20.3244 37.9779 19.7473C40.5304 19.2354 43.0913 18.7624 45.6466 18.2616C47.5472 17.8898 49.445 17.5014 51.3441 17.1226C52.0239 16.9839 52.0849 17.0422 51.8227 17.7247C50.9904 19.8999 50.1122 22.0585 49.2951 24.2448C48.5835 26.1454 47.9301 28.0681 47.2573 29.9825C47.235 30.0878 47.2262 30.1955 47.2309 30.303L47.421 30.3932Z" fill="#867DEE"/>
</g>
<defs>
<clipPath id="clip0_107_31140">
<rect width="73.6164" height="93.26" fill="white"/>
</clipPath>
</defs>
</svg>
