<?xml version="1.0" encoding="UTF-8"?>
<svg id="Layer_2" data-name="Layer 2" xmlns="http://www.w3.org/2000/svg" viewBox="0 0 135.58 28.97">
  <defs>
    <style>
      .cls-1 {
        fill: #fff;
      }

      .cls-2 {
        fill: #fbae44;
      }
    </style>
  </defs>
  <g id="Layer_1-2" data-name="Layer 1">
    <g>
      <path class="cls-1" d="M0,0c.33.01.66.03.99.03,1.61,0,3.22,0,4.82-.01.41,0,.54.1.54.52-.02,2.42-.01,4.84-.01,7.26v.55c.14-.03.24-.03.32-.06,1.88-.85,3.86-1.16,5.9-1.03,4.52.28,8.7,2.98,10.24,7.41,1.71,4.95-.39,10.17-5.19,12.79-2.17,1.19-4.52,1.7-6.97,1.44-4.02-.43-7.23-2.27-9.3-5.83-.74-1.28-1.16-2.66-1.23-4.15,0-.15-.07-.3-.11-.45V0ZM17.1,18.1c.18-2.57-2.3-5.21-5.36-5.24-2.83-.02-5.29,2.36-5.43,4.98-.15,2.89,2.51,5.51,5.39,5.51,3.01,0,5.57-2.67,5.4-5.25"/>
      <path class="cls-2" d="M101.59,18.77c.29,1.91,1.29,3.16,2.86,4,1.48.79,4.05.94,6.07-1.15,1.11,1.58,2.22,3.16,3.34,4.77-1.08.88-2.23,1.6-3.55,1.99-4.55,1.35-8.56.41-11.9-2.98-1.72-1.74-2.62-3.89-2.86-6.36-.57-5.88,3.83-10.67,9-11.6,5.58-1,11.01,2.05,12.79,7.29.44,1.29.59,2.61.47,4.03h-16.23ZM110.58,14.91c-.51-1.18-2.64-2.16-4.31-1.98-1.42.15-2.61.75-3.52,1.98h7.83Z"/>
      <path class="cls-2" d="M81.14,28.97h-6.3c0-.16-.02-.32-.02-.47,0-3.87-.01-7.73,0-11.6,0-1.42.18-2.82.7-4.16.82-2.11,2.34-3.5,4.46-4.23,2.53-.86,5.09-.87,7.62,0,2.76.95,4.35,2.92,4.89,5.74.18.93.25,1.9.26,2.85.03,3.77.01,7.53.01,11.3v.55h-6.32v-.49c0-3.94.01-7.88-.02-11.82,0-.58-.13-1.2-.35-1.74-.42-1.05-1.31-1.41-2.39-1.38-1.02.03-1.84.43-2.19,1.41-.21.58-.35,1.22-.35,1.83-.03,3.88-.02,7.76-.02,11.64v.56Z"/>
      <path class="cls-1" d="M46.82,14.54c0-1.99,0-3.98,0-5.97,0-.39.12-.48.49-.48,1.78.02,3.56.02,5.34,0,.38,0,.48.11.48.49-.01,3.92.02,7.85-.02,11.77-.02,1.71-.34,3.38-1.24,4.88-1.15,1.92-2.93,2.94-5.05,3.4-.9.2-1.84.35-2.76.34-1.51-.02-2.98-.31-4.38-.93-2.42-1.09-3.77-3.02-4.21-5.57-.19-1.09-.25-2.21-.26-3.32-.03-3.51,0-7.02-.02-10.53,0-.42.12-.53.54-.53,1.76.02,3.53.02,5.3,0,.38,0,.49.11.49.49-.01,3.89-.01,7.79,0,11.69,0,.76.15,1.5.61,2.15.41.58.99.86,1.68.89.36.02.73.03,1.07-.03,1.04-.2,1.69-.94,1.88-2.08.06-.36.09-.74.09-1.11,0-1.85,0-3.7,0-5.54"/>
      <path class="cls-2" d="M119.08,26.18c1.04-1.38,2.08-2.74,3.14-4.14.27.22.52.42.78.61,1.62,1.17,3.42,1.46,5.34,1.07.67-.13,1.23-.47,1.39-1.23.11-.5,0-.96-.46-1.18-.64-.3-1.32-.52-2-.71-1.08-.31-2.2-.52-3.26-.88-1.64-.57-3.06-1.48-3.62-3.22-.73-2.27-.7-4.52.8-6.53,1.08-1.45,2.63-2.19,4.35-2.54,3.44-.71,6.45.22,9.12,2.43.04.03.08.08.09.1-1.13,1.15-2.25,2.29-3.31,3.35-.83-.32-1.59-.67-2.39-.91-.76-.22-1.56-.18-2.33.04-.47.13-.84.4-.93.91-.09.47.07.91.46,1.18.38.26.81.48,1.26.61,1.23.35,2.5.61,3.73.97.65.19,1.29.47,1.88.81,1.68.95,2.4,2.49,2.46,4.35.03.88,0,1.79-.22,2.63-.49,1.94-1.8,3.25-3.59,4.09-1.35.63-2.77.94-4.27.98-3.13.08-5.94-.74-8.42-2.78"/>
      <rect class="cls-2" x="56.59" y=".84" width="6.25" height="28.13"/>
      <path class="cls-1" d="M26.15,14.84c0-4.51,0-9.02,0-13.53,0-.43.1-.57.55-.56,1.75.03,3.5.02,5.25,0,.38,0,.52.08.52.5-.01,9.05-.01,18.1,0,27.15,0,.37-.09.49-.48.49-1.76,0-3.53.03-5.29.08-.45.01-.55-.13-.54-.56.01-4.52,0-9.05,0-13.57"/>
      <path class="cls-2" d="M72.12,9.05c0,6.5,0,13,0,19.5,0,.22.01.42-.32.41-1.89,0-3.79,0-5.68,0-.08,0-.16-.04-.23-.06V9.05h6.24Z"/>
      <path class="cls-2" d="M67.4.86c.1.04.32.1.52.2,1.11.56,2.22,1.13,3.32,1.69.44.22.74.56.74,1.06,0,.5-.27.85-.7,1.09-1.08.61-2.16,1.24-3.24,1.85-.89.5-1.66.12-1.81-.9-.01-.07-.03-.14-.03-.21-.03-1.2-.08-2.4-.1-3.6,0-.66.54-1.2,1.28-1.19"/>
    </g>
  </g>
</svg>